<svg xmlns="http://www.w3.org/2000/svg" width="19" height="18" viewBox="0 0 19 18" fill="none">
  <g clip-path="url(#clip0_826_595)">
    <path d="M13.1964 8.35714H10.1428V5.30357C10.1428 5.21517 10.0705 5.14285 9.98211 5.14285H9.01782C8.92943 5.14285 8.85711 5.21517 8.85711 5.30357V8.35714H5.80354C5.71514 8.35714 5.64282 8.42946 5.64282 8.51785V9.48214C5.64282 9.57053 5.71514 9.64285 5.80354 9.64285H8.85711V12.6964C8.85711 12.7848 8.92943 12.8571 9.01782 12.8571H9.98211C10.0705 12.8571 10.1428 12.7848 10.1428 12.6964V9.64285H13.1964C13.2848 9.64285 13.3571 9.57053 13.3571 9.48214V8.51785C13.3571 8.42946 13.2848 8.35714 13.1964 8.35714Z" fill="#012169"/>
    <path d="M9.5 0C4.52991 0 0.5 4.02991 0.5 9C0.5 13.9701 4.52991 18 9.5 18C14.4701 18 18.5 13.9701 18.5 9C18.5 4.02991 14.4701 0 9.5 0ZM9.5 16.4732C5.37366 16.4732 2.02679 13.1263 2.02679 9C2.02679 4.87366 5.37366 1.52679 9.5 1.52679C13.6263 1.52679 16.9732 4.87366 16.9732 9C16.9732 13.1263 13.6263 16.4732 9.5 16.4732Z" fill="#012169"/>
  </g>
  <defs>
    <clipPath id="clip0_826_595">
      <rect width="18" height="18" fill="white" transform="translate(0.5)"/>
    </clipPath>
  </defs>
</svg>
