<svg xmlns="http://www.w3.org/2000/svg" width="38" height="38" viewBox="0 0 38 38" fill="none">
  <path d="M9.75676 6.02344H4.89189C2.74246 6.02344 1 7.52276 1 9.37227V32.8141C1 34.6637 2.74246 36.163 4.89189 36.163H16.5676" stroke="white" stroke-width="2" stroke-linecap="round"/>
  <path d="M23.3779 6.02344H28.2428C30.3923 6.02344 32.1347 7.52276 32.1347 9.37227V24.442" stroke="white" stroke-width="2" stroke-linecap="round"/>
  <path d="M8.78418 10.0419V6.86047C8.78418 6.39809 9.2198 6.02326 9.75715 6.02326C10.2945 6.02326 10.7383 5.64825 10.8304 5.19271C11.1187 3.76565 12.2363 1 16.568 1C20.8996 1 22.0172 3.76565 22.3056 5.19271C22.3976 5.64825 22.8415 6.02326 23.3788 6.02326C23.9161 6.02326 24.3517 6.39809 24.3517 6.86047V10.0419C24.3517 10.5967 23.8291 11.0465 23.1842 11.0465H9.95175C9.30692 11.0465 8.78418 10.5967 8.78418 10.0419Z" stroke="white" stroke-width="2" stroke-linecap="round"/>
  <path d="M23.3779 33.6509L27.2698 36.9998L36.9996 28.6277" stroke="white" stroke-width="2" stroke-linecap="round" stroke-linejoin="round"/>
</svg>
