<svg width="49" height="48" viewBox="0 0 49 48" fill="none" xmlns="http://www.w3.org/2000/svg">
<path d="M36.3176 11.2457C29.6983 4.94668 19.3017 4.94668 12.6824 11.2457L12.25 11.6571V11.6571C5.52656 18.0552 5.37408 28.7291 11.912 35.3166L12.3325 35.7403C19.0375 42.4961 29.9625 42.4961 36.6675 35.7403V35.7403C43.4362 28.9202 43.2784 17.8696 36.3176 11.2457V11.2457Z" fill="#C4C4C4" stroke="#C4C4C4" stroke-width="1.5"/>
<path d="M16 34.5713V33.2856C16 28.315 20.0294 24.2856 25 24.2856C29.9706 24.2856 34 28.315 34 33.2856V34.5713" stroke="white" stroke-width="1.5" stroke-linecap="round" stroke-linejoin="round"/>
<path d="M25 24.2857C27.8403 24.2857 30.1429 21.9831 30.1429 19.1429C30.1429 16.3025 27.8403 14 25 14C22.1597 14 19.8572 16.3025 19.8572 19.1429C19.8572 21.9831 22.1597 24.2857 25 24.2857Z" stroke="white" stroke-width="1.5" stroke-linecap="round" stroke-linejoin="round"/>
</svg>
