<svg width="20" height="20" viewBox="0 0 20 20" fill="none" xmlns="http://www.w3.org/2000/svg">
<g id="Block">
<path id="Vector" d="M17.6752 6.96094H13.0324V2.31808C13.0324 2.12165 12.8717 1.96094 12.6752 1.96094H2.31808C2.12165 1.96094 1.96094 2.12165 1.96094 2.31808V12.6752C1.96094 12.8717 2.12165 13.0324 2.31808 13.0324H6.96094V17.6752C6.96094 17.8717 7.12165 18.0324 7.31808 18.0324H17.6752C17.8717 18.0324 18.0324 17.8717 18.0324 17.6752V7.31808C18.0324 7.12165 17.8717 6.96094 17.6752 6.96094ZM6.96094 7.31808V11.5145H3.47879V3.47879H11.5145V6.96094H7.31808C7.12165 6.96094 6.96094 7.12165 6.96094 7.31808ZM11.5145 8.4788V11.5145H8.4788V8.4788H11.5145ZM16.5145 16.5145H8.4788V13.0324H12.6752C12.8717 13.0324 13.0324 12.8717 13.0324 12.6752V8.4788H16.5145V16.5145Z" fill="url(#paint0_linear_476_2536)"/>
</g>
<defs>
<linearGradient id="paint0_linear_476_2536" x1="1.96094" y1="18.0324" x2="21.2799" y2="8.64213" gradientUnits="userSpaceOnUse">
<stop stop-color="#00A653"/>
<stop offset="1" stop-color="#00AEEE"/>
</linearGradient>
</defs>
</svg>
