<svg xmlns="http://www.w3.org/2000/svg" width="36" height="36" viewBox="0 0 36 36" fill="none">
  <path d="M33.107 29.25H5.46415V4.17861C5.46415 4.00182 5.3195 3.85718 5.14272 3.85718H2.89272C2.71593 3.85718 2.57129 4.00182 2.57129 4.17861V31.8215C2.57129 31.9982 2.71593 32.1429 2.89272 32.1429H33.107C33.2838 32.1429 33.4284 31.9982 33.4284 31.8215V29.5715C33.4284 29.3947 33.2838 29.25 33.107 29.25ZM8.99986 26.0357H11.2499C11.4266 26.0357 11.5713 25.8911 11.5713 25.7143V19.9286C11.5713 19.7518 11.4266 19.6072 11.2499 19.6072H8.99986C8.82308 19.6072 8.67843 19.7518 8.67843 19.9286V25.7143C8.67843 25.8911 8.82308 26.0357 8.99986 26.0357ZM15.107 26.0357H17.357C17.5338 26.0357 17.6784 25.8911 17.6784 25.7143V12.8572C17.6784 12.6804 17.5338 12.5357 17.357 12.5357H15.107C14.9302 12.5357 14.7856 12.6804 14.7856 12.8572V25.7143C14.7856 25.8911 14.9302 26.0357 15.107 26.0357ZM21.2141 26.0357H23.4641C23.6409 26.0357 23.7856 25.8911 23.7856 25.7143V15.9911C23.7856 15.8143 23.6409 15.6697 23.4641 15.6697H21.2141C21.0374 15.6697 20.8927 15.8143 20.8927 15.9911V25.7143C20.8927 25.8911 21.0374 26.0357 21.2141 26.0357ZM27.3213 26.0357H29.5713C29.7481 26.0357 29.8927 25.8911 29.8927 25.7143V9.64289C29.8927 9.46611 29.7481 9.32146 29.5713 9.32146H27.3213C27.1445 9.32146 26.9999 9.46611 26.9999 9.64289V25.7143C26.9999 25.8911 27.1445 26.0357 27.3213 26.0357Z" fill="white"/>
</svg>
