<svg width="11" height="18" viewBox="0 0 11 18" fill="none" xmlns="http://www.w3.org/2000/svg">
<g id="Group 2">
<path id="Union" fill-rule="evenodd" clip-rule="evenodd" d="M2 0C0.89543 0 0 0.89543 0 2C0 3.10457 0.89543 4 2 4C3.10457 4 4 3.10457 4 2C4 0.89543 3.10457 0 2 0ZM2 7C0.89543 7 0 7.89543 0 9C0 10.1046 0.89543 11 2 11C3.10457 11 4 10.1046 4 9C4 7.89543 3.10457 7 2 7ZM0 16C0 14.8954 0.89543 14 2 14C3.10457 14 4 14.8954 4 16C4 17.1046 3.10457 18 2 18C0.89543 18 0 17.1046 0 16ZM9 7C7.89543 7 7 7.89543 7 9C7 10.1046 7.89543 11 9 11C10.1046 11 11 10.1046 11 9C11 7.89543 10.1046 7 9 7ZM7 2C7 0.89543 7.89543 0 9 0C10.1046 0 11 0.89543 11 2C11 3.10457 10.1046 4 9 4C7.89543 4 7 3.10457 7 2ZM9 14C7.89543 14 7 14.8954 7 16C7 17.1046 7.89543 18 9 18C10.1046 18 11 17.1046 11 16C11 14.8954 10.1046 14 9 14Z" fill="black" fill-opacity="0.85"/>
</g>
</svg>
