<svg width="18" height="18" viewBox="0 0 18 18" fill="none" xmlns="http://www.w3.org/2000/svg">
<g id="DeleteOutlined">
<path id="Vector" d="M5.94978 2.40737H5.78906C5.87746 2.40737 5.94978 2.33504 5.94978 2.24665V2.40737H12.0569V2.24665C12.0569 2.33504 12.1292 2.40737 12.2176 2.40737H12.0569V3.85379H13.5034V2.24665C13.5034 1.5375 12.9268 0.960938 12.2176 0.960938H5.78906C5.07991 0.960938 4.50335 1.5375 4.50335 2.24665V3.85379H5.94978V2.40737ZM16.0748 3.85379H1.93192C1.57634 3.85379 1.28906 4.14107 1.28906 4.49665V5.13951C1.28906 5.2279 1.36138 5.30022 1.44978 5.30022H2.66317L3.15938 15.8069C3.19152 16.492 3.75804 17.0324 4.44308 17.0324H13.5636C14.2507 17.0324 14.8152 16.494 14.8473 15.8069L15.3435 5.30022H16.5569C16.6453 5.30022 16.7176 5.2279 16.7176 5.13951V4.49665C16.7176 4.14107 16.4304 3.85379 16.0748 3.85379ZM13.4089 15.5859H4.59777L4.11161 5.30022H13.8951L13.4089 15.5859Z" fill="#00AEEE"/>
</g>
</svg>
