<svg width="16" height="16" viewBox="0 0 16 16" fill="none" xmlns="http://www.w3.org/2000/svg">
<g id="Edit" clip-path="url(#clip0_387_6934)">
<path id="Vector" d="M3.46116 12.2879C3.49688 12.2879 3.53259 12.2844 3.5683 12.279L6.57188 11.7522C6.60759 11.7451 6.64152 11.729 6.66652 11.7022L14.2362 4.13259C14.2527 4.11607 14.2659 4.09645 14.2748 4.07484C14.2838 4.05324 14.2884 4.03008 14.2884 4.0067C14.2884 3.98331 14.2838 3.96015 14.2748 3.93855C14.2659 3.91695 14.2527 3.89732 14.2362 3.8808L11.2683 0.911161C11.2344 0.877232 11.1897 0.859375 11.1415 0.859375C11.0933 0.859375 11.0487 0.877232 11.0147 0.911161L3.44509 8.4808C3.4183 8.50759 3.40223 8.53973 3.39509 8.57545L2.8683 11.579C2.85093 11.6747 2.85714 11.7731 2.88639 11.8659C2.91564 11.9586 2.96704 12.0428 3.03616 12.1112C3.15402 12.2254 3.30223 12.2879 3.46116 12.2879ZM4.66473 9.17366L11.1415 2.69866L12.4504 4.00759L5.97366 10.4826L4.38616 10.7629L4.66473 9.17366ZM14.5737 13.7879H1.4308C1.11473 13.7879 0.859375 14.0433 0.859375 14.3594V15.0022C0.859375 15.0808 0.923661 15.1451 1.00223 15.1451H15.0022C15.0808 15.1451 15.1451 15.0808 15.1451 15.0022V14.3594C15.1451 14.0433 14.8897 13.7879 14.5737 13.7879Z" fill="#00AEEE"/>
</g>
<defs>
<clipPath id="clip0_387_6934">
<rect width="16" height="16" fill="white"/>
</clipPath>
</defs>
</svg>
