<svg width="16" height="16" viewBox="0 0 16 16" fill="none" xmlns="http://www.w3.org/2000/svg">
<g id="Eye">
<path id="Vector" d="M15.6783 7.5404C13.9855 3.97433 11.4266 2.17969 7.9962 2.17969C4.56405 2.17969 2.00691 3.97433 0.314054 7.54219C0.246153 7.68597 0.210938 7.843 0.210938 8.00201C0.210938 8.16102 0.246153 8.31805 0.314054 8.46183C2.00691 12.0279 4.56584 13.8225 7.9962 13.8225C11.4283 13.8225 13.9855 12.0279 15.6783 8.46005C15.8158 8.17076 15.8158 7.83505 15.6783 7.5404ZM7.9962 12.5368C5.11584 12.5368 3.00691 11.0761 1.51941 8.00112C3.00691 4.92612 5.11584 3.4654 7.9962 3.4654C10.8766 3.4654 12.9855 4.92612 14.473 8.00112C12.9873 11.0761 10.8783 12.5368 7.9962 12.5368ZM7.92477 4.85826C6.18905 4.85826 4.78191 6.2654 4.78191 8.00112C4.78191 9.73683 6.18905 11.144 7.92477 11.144C9.66048 11.144 11.0676 9.73683 11.0676 8.00112C11.0676 6.2654 9.66048 4.85826 7.92477 4.85826ZM7.92477 10.0011C6.81941 10.0011 5.92477 9.10647 5.92477 8.00112C5.92477 6.89576 6.81941 6.00112 7.92477 6.00112C9.03013 6.00112 9.92477 6.89576 9.92477 8.00112C9.92477 9.10647 9.03013 10.0011 7.92477 10.0011Z" fill="#00AEEE"/>
</g>
</svg>
