<svg xmlns="http://www.w3.org/2000/svg" width="39" height="30" viewBox="0 0 39 30" fill="none">
  <g clip-path="url(#clip0_1095_45003)">
    <path d="M0.5 0.75H38.5V29.25H0.5V0.75Z" fill="#012169"/>
    <path d="M4.95312 0.75L19.4406 11.4969L33.8687 0.75H38.5V4.43125L24.25 15.0594L38.5 25.6281V29.25H33.75L19.5 18.6219L5.30937 29.25H0.5V25.6875L14.6906 15.1187L0.5 4.55V0.75H4.95312Z" fill="white"/>
    <path d="M25.675 17.4344L38.5 26.875V29.25L22.4094 17.4344H25.675ZM14.75 18.6219L15.1062 20.7L3.70625 29.25H0.5L14.75 18.6219ZM38.5 0.75V0.928125L23.7156 12.0906L23.8344 9.47812L35.5312 0.75H38.5ZM0.5 0.75L14.6906 11.2H11.1281L0.5 3.24375V0.75Z" fill="#C8102E"/>
    <path d="M14.8094 0.75V29.25H24.3094V0.75H14.8094ZM0.5 10.25V19.75H38.5V10.25H0.5Z" fill="white"/>
    <path d="M0.5 12.2094V17.9094H38.5V12.2094H0.5ZM16.7094 0.75V29.25H22.4094V0.75H16.7094Z" fill="#C8102E"/>
  </g>
  <defs>
    <clipPath id="clip0_1095_45003">
      <rect width="38" height="28.5" fill="white" transform="translate(0.5 0.75)"/>
    </clipPath>
  </defs>
</svg>
