<svg width="16" height="16" viewBox="0 0 16 16" fill="none" xmlns="http://www.w3.org/2000/svg">
<g clip-path="url(#clip0)">
<path d="M15.8299 6.50201L8.2456 0.94898C8.09935 0.841917 7.90066 0.841917 7.75448 0.94898L0.170163 6.50201C-0.0150871 6.63767 -0.0553371 6.89779 0.0803191 7.08304C0.215975 7.26829 0.476132 7.30848 0.66135 7.17289L8.00001 1.79964L15.3387 7.17285C15.4127 7.22707 15.4987 7.25317 15.5839 7.25317C15.7119 7.25317 15.8382 7.19426 15.9197 7.08301C16.0553 6.89779 16.0151 6.63767 15.8299 6.50201Z" fill="black"/>
<path d="M13.8202 7.26697C13.5906 7.26697 13.4045 7.45309 13.4045 7.68269V14.2998H10.0788V10.6878C10.0788 9.54153 9.14622 8.60903 8.00004 8.60903C6.85385 8.60903 5.92129 9.54159 5.92129 10.6878V14.2999H2.59557V7.68272C2.59557 7.45312 2.40941 7.267 2.17985 7.267C1.95029 7.267 1.76413 7.45312 1.76413 7.68272V14.7156C1.76413 14.9452 1.95029 15.1313 2.17985 15.1313H6.337C6.55563 15.1313 6.73454 14.9624 6.7511 14.748C6.7521 14.7383 6.75272 14.7277 6.75272 14.7156V10.6878C6.75272 10 7.31225 9.4405 8.00004 9.4405C8.68782 9.4405 9.24735 10.0001 9.24735 10.6878V14.7156C9.24735 14.7276 9.24797 14.738 9.24897 14.7476C9.26535 14.9622 9.44432 15.1313 9.66307 15.1313H13.8202C14.0498 15.1313 14.2359 14.9452 14.2359 14.7156V7.68272C14.2359 7.45309 14.0498 7.26697 13.8202 7.26697Z" fill="black"/>
</g>
<defs>
<clipPath id="clip0">
<rect width="16" height="16" fill="white"/>
</clipPath>
</defs>
</svg>
