<svg width="30" height="30" viewBox="0 0 30 30" fill="none" xmlns="http://www.w3.org/2000/svg">
<path d="M25.1786 23.5692H24.375V12.1853C24.375 7.46094 20.8828 3.55692 16.3393 2.90737V1.60491C16.3393 0.864955 15.74 0.265625 15 0.265625C14.26 0.265625 13.6607 0.864955 13.6607 1.60491V2.90737C9.11719 3.55692 5.625 7.46094 5.625 12.1853V23.5692H4.82143C4.22879 23.5692 3.75 24.048 3.75 24.6406V25.7121C3.75 25.8594 3.87054 25.9799 4.01786 25.9799H11.25C11.25 28.0491 12.9308 29.7299 15 29.7299C17.0692 29.7299 18.75 28.0491 18.75 25.9799H25.9821C26.1295 25.9799 26.25 25.8594 26.25 25.7121V24.6406C26.25 24.048 25.7712 23.5692 25.1786 23.5692ZM15 27.5871C14.1127 27.5871 13.3929 26.8672 13.3929 25.9799H16.6071C16.6071 26.8672 15.8873 27.5871 15 27.5871ZM8.03571 23.5692V12.1853C8.03571 10.3237 8.75893 8.57589 10.0748 7.26005C11.3906 5.9442 13.1384 5.22098 15 5.22098C16.8616 5.22098 18.6094 5.9442 19.9252 7.26005C21.2411 8.57589 21.9643 10.3237 21.9643 12.1853V23.5692H8.03571Z" fill="white"/>
</svg>
