<svg width="34" height="34" viewBox="0 0 34 34" fill="none" xmlns="http://www.w3.org/2000/svg">
<path d="M9.5 26V24.5C9.5 20.3579 12.8579 17 17 17C21.1421 17 24.5 20.3579 24.5 24.5V26" stroke="white" stroke-width="3" stroke-linecap="round"/>
<path d="M17 17C19.4853 17 21.5 14.9853 21.5 12.5C21.5 10.0147 19.4853 8 17 8C14.5146 8 12.5 10.0147 12.5 12.5C12.5 14.9853 14.5146 17 17 17Z" stroke="white" stroke-width="3" stroke-linecap="round" stroke-linejoin="round"/>
<path d="M17 32C25.2843 32 32 25.2843 32 17C32 8.71573 25.2843 2 17 2C8.71573 2 2 8.71573 2 17C2 25.2843 8.71573 32 17 32Z" stroke="white" stroke-width="3"/>
</svg>
