<svg width="12" height="13" viewBox="0 0 12 13" fill="none" xmlns="http://www.w3.org/2000/svg">
    <path d="M8.75 3.125C8.75 3.05625 8.69375 3 8.625 3H2.625C2.55625 3 2.5 3.05625 2.5 3.125V3.875C2.5 3.94375 2.55625 4 2.625 4H8.625C8.69375 4 8.75 3.94375 8.75 3.875V3.125ZM8.625 5.25H2.625C2.55625 5.25 2.5 5.30625 2.5 5.375V6.125C2.5 6.19375 2.55625 6.25 2.625 6.25H8.625C8.69375 6.25 8.75 6.19375 8.75 6.125V5.375C8.75 5.30625 8.69375 5.25 8.625 5.25ZM5.5 7.5H2.625C2.55625 7.5 2.5 7.55625 2.5 7.625V8.375C2.5 8.44375 2.55625 8.5 2.625 8.5H5.5C5.56875 8.5 5.625 8.44375 5.625 8.375V7.625C5.625 7.55625 5.56875 7.5 5.5 7.5ZM4.75 12.3125H1.25V1.3125H10V6.6875C10 6.75625 10.0563 6.8125 10.125 6.8125H11C11.0688 6.8125 11.125 6.75625 11.125 6.6875V0.6875C11.125 0.410938 10.9016 0.1875 10.625 0.1875H0.625C0.348438 0.1875 0.125 0.410938 0.125 0.6875V12.9375C0.125 13.2141 0.348438 13.4375 0.625 13.4375H4.75C4.81875 13.4375 4.875 13.3813 4.875 13.3125V12.4375C4.875 12.3688 4.81875 12.3125 4.75 12.3125ZM10.325 11.15C10.7781 10.7391 11.0625 10.1453 11.0625 9.48438C11.0625 8.24219 10.0547 7.23438 8.8125 7.23438C7.57031 7.23438 6.5625 8.24219 6.5625 9.48438C6.5625 10.1453 6.84688 10.7391 7.3 11.15C6.40938 11.6578 5.79688 12.5984 5.75 13.6828C5.74688 13.7531 5.80469 13.8125 5.875 13.8125H6.62656C6.69219 13.8125 6.74688 13.7609 6.75156 13.6938C6.8125 12.6125 7.71406 11.75 8.8125 11.75C9.91094 11.75 10.8125 12.6125 10.8734 13.6938C10.8766 13.7594 10.9313 13.8125 10.9984 13.8125H11.75C11.8219 13.8125 11.8781 13.7531 11.875 13.6828C11.8297 12.5969 11.2156 11.6578 10.325 11.15ZM8.8125 8.23438C9.50313 8.23438 10.0625 8.79375 10.0625 9.48438C10.0625 10.175 9.50313 10.7344 8.8125 10.7344C8.12188 10.7344 7.5625 10.175 7.5625 9.48438C7.5625 8.79375 8.12188 8.23438 8.8125 8.23438Z" fill="black" fill-opacity="0.85"/>
</svg>   