<svg xmlns="http://www.w3.org/2000/svg" width="36" height="36" viewBox="0 0 36 36" fill="none">
  <path d="M25.0712 9.96432V8.03575C25.0712 7.85896 24.9265 7.71432 24.7497 7.71432H9.32115C9.14436 7.71432 8.99972 7.85896 8.99972 8.03575V9.96432C8.99972 10.1411 9.14436 10.2857 9.32115 10.2857H24.7497C24.9265 10.2857 25.0712 10.1411 25.0712 9.96432ZM9.32115 13.5C9.14436 13.5 8.99972 13.6447 8.99972 13.8215V15.75C8.99972 15.9268 9.14436 16.0715 9.32115 16.0715H16.714C16.8908 16.0715 17.0354 15.9268 17.0354 15.75V13.8215C17.0354 13.6447 16.8908 13.5 16.714 13.5H9.32115ZM24.4283 18.1607C19.635 18.1607 15.7497 22.046 15.7497 26.8393C15.7497 31.6326 19.635 35.5179 24.4283 35.5179C29.2216 35.5179 33.1069 31.6326 33.1069 26.8393C33.1069 22.046 29.2216 18.1607 24.4283 18.1607ZM28.7475 31.1585C27.5944 32.3116 26.0595 32.9465 24.4283 32.9465C22.797 32.9465 21.2622 32.3116 20.1091 31.1585C18.956 30.0054 18.3212 28.4706 18.3212 26.8393C18.3212 25.2081 18.956 23.6732 20.1091 22.5201C21.2622 21.367 22.797 20.7322 24.4283 20.7322C26.0595 20.7322 27.5944 21.367 28.7475 22.5201C29.9006 23.6732 30.5354 25.2081 30.5354 26.8393C30.5354 28.4706 29.9006 30.0054 28.7475 31.1585ZM28.0042 23.7857H26.2243C26.1198 23.7857 26.0234 23.834 25.9631 23.9183L23.4118 27.446L22.4837 26.1643C22.4539 26.1229 22.4147 26.0893 22.3692 26.0662C22.3238 26.0431 22.2735 26.0313 22.2225 26.0317H20.4506C20.1895 26.0317 20.0368 26.3291 20.1895 26.542L23.1546 30.6442C23.2832 30.821 23.5444 30.821 23.6729 30.6442L28.2613 24.296C28.418 24.0831 28.2653 23.7857 28.0042 23.7857ZM15.1069 31.6607H5.78544V3.37503H28.2854V17.1965C28.2854 17.3732 28.4301 17.5179 28.6069 17.5179H30.8569C31.0337 17.5179 31.1783 17.3732 31.1783 17.1965V1.76789C31.1783 1.05673 30.6037 0.482178 29.8926 0.482178H4.17829C3.46713 0.482178 2.89258 1.05673 2.89258 1.76789V33.2679C2.89258 33.9791 3.46713 34.5536 4.17829 34.5536H15.1069C15.2837 34.5536 15.4283 34.409 15.4283 34.2322V31.9822C15.4283 31.8054 15.2837 31.6607 15.1069 31.6607Z" fill="white"/>
</svg>
