<svg xmlns="http://www.w3.org/2000/svg" width="20" height="20" viewBox="0 0 20 20" fill="none">
  <path d="M12.4996 8.99976H11.9996V7.99984C11.9996 6.89693 11.1027 6 9.99976 6C8.89685 6 7.99992 6.89693 7.99992 7.99984V8.99976H7.49996C7.22398 8.99976 7 9.22374 7 9.49972V13.4993C7 13.7753 7.22398 13.9993 7.49996 13.9993H12.4996C12.7755 13.9993 12.9995 13.7753 12.9995 13.4993V9.49972C12.9995 9.22374 12.7755 8.99976 12.4996 8.99976ZM8.99984 7.99984C8.99984 7.44888 9.44781 6.99992 9.99976 6.99992C10.5517 6.99992 10.9997 7.44888 10.9997 7.99984V8.99976H8.99984V7.99984ZM11.9996 12.9994H7.99992V9.99968H11.9996V12.9994Z" fill="#004C98" stroke="#004C98" stroke-width="0.5"/>
  <path d="M18.6465 6.44321C18.3574 6.3196 18.03 6.46962 17.9164 6.77802L17.58 7.67562C16.6138 3.8368 13.3346 1 9.43684 1C4.78421 1 1 5.03681 1 10C1 14.9632 4.78421 19 9.43684 19C11.69 19 13.8082 18.064 15.4034 16.3636C15.6228 16.1296 15.6228 15.7492 15.4034 15.5153C15.184 15.2813 14.8274 15.2813 14.6081 15.5153C13.2256 16.9889 11.3886 17.8 9.43684 17.8C5.40515 17.8 2.12491 14.3008 2.12491 10C2.12491 5.6992 5.40515 2.2 9.43684 2.2C12.9477 2.2 15.8871 4.85441 16.5879 8.38001L15.4596 7.17521C15.2403 6.94121 14.8836 6.94121 14.6644 7.17521C14.445 7.40921 14.445 7.78961 14.6644 8.02361L16.9141 10.4236C16.9265 10.4368 16.9434 10.4416 16.9569 10.4536C16.9996 10.492 17.0435 10.5292 17.0953 10.552C17.1628 10.5844 17.237 10.6 17.3113 10.6C17.3484 10.6 17.3866 10.5964 17.4249 10.588C17.4406 10.5844 17.4519 10.5712 17.4665 10.5664C17.5239 10.5484 17.5755 10.5208 17.6239 10.486C17.6453 10.4704 17.6667 10.4596 17.6858 10.4416C17.7477 10.3816 17.7994 10.3108 17.832 10.2268L17.8343 10.2232L18.9593 7.22322C19.075 6.91602 18.9357 6.56681 18.6465 6.44321Z" fill="#004C98" stroke="#004C98" stroke-width="0.5"/>
</svg>
