<svg width="16" height="16" viewBox="0 0 16 16" fill="none" xmlns="http://www.w3.org/2000/svg">
<path d="M13.8476 7.6322L9.28686 3.07152C9.08361 2.86829 8.7545 2.86829 8.55125 3.07152C8.34802 3.27458 8.34802 3.60406 8.55125 3.80712L12.7442 8.00001L8.55127 12.1929C8.34804 12.3959 8.34804 12.7254 8.55127 12.9285C8.6529 13.0301 8.7859 13.0809 8.91907 13.0809C9.05225 13.0809 9.18544 13.0301 9.28688 12.9285L13.8476 8.36781C14.0508 8.16475 14.0508 7.83526 13.8476 7.6322Z" fill="#000"/>
<path d="M7.44873 7.6322L2.88804 3.07152C2.68498 2.86829 2.3555 2.86829 2.15243 3.07152C1.94921 3.27458 1.94921 3.60406 2.15243 3.80712L6.34515 8.00001L2.15246 12.1929C1.94923 12.3959 1.94923 12.7254 2.15246 12.9285C2.25389 13.0301 2.38709 13.0809 2.52026 13.0809C2.65343 13.0809 2.78663 13.0301 2.88806 12.9285L7.44875 8.36781C7.65195 8.16475 7.65195 7.83526 7.44873 7.6322Z" fill="#000"/>
</svg>
