<svg width="38" height="38" viewBox="0 0 38 38" fill="none" xmlns="http://www.w3.org/2000/svg">
<path d="M18.9996 24.4C21.982 24.4 24.3996 21.9824 24.3996 19C24.3996 16.0176 21.982 13.6 18.9996 13.6C16.0172 13.6 13.5996 16.0176 13.5996 19C13.5996 21.9824 16.0172 24.4 18.9996 24.4Z" stroke="white" stroke-width="2" stroke-linecap="round" stroke-linejoin="round"/>
<path d="M32.7203 16.1117L30.7445 11.3406L33.4 8.2L29.8 4.6L26.6765 7.26931L21.804 5.26553L20.6835 1H17.1658L16.0284 5.32203L11.2679 7.32873L8.2 4.6L4.6 8.2L7.21607 11.4199L5.2705 16.2033L1 17.2V20.8L5.322 21.9799L7.32835 26.7395L4.6 29.8L8.2 33.4L11.4241 30.7725L16.1146 32.7021L17.2 37H20.8L21.8881 32.7038L26.6592 30.7279C27.4544 31.2963 29.8 33.4 29.8 33.4L33.4 29.8L30.7286 26.6489L32.705 21.8764L36.9998 20.759L37 17.2L32.7203 16.1117Z" stroke="white" stroke-width="2" stroke-linecap="round" stroke-linejoin="round"/>
</svg>
