<svg width="30" height="30" viewBox="0 0 30 30" fill="none" xmlns="http://www.w3.org/2000/svg">
<path d="M8 23.3791V21.9826C8 18.1263 11.134 15 15 15C18.866 15 22 18.1263 22 21.9826V23.3791" stroke="white" stroke-width="2" stroke-linecap="round"/>
<path d="M14.9998 15.0002C17.3195 15.0002 19.1998 13.1246 19.1998 10.8107C19.1998 8.49683 17.3195 6.62109 14.9998 6.62109C12.6801 6.62109 10.7998 8.49683 10.7998 10.8107C10.7998 13.1246 12.6801 15.0002 14.9998 15.0002Z" stroke="white" stroke-width="2" stroke-linecap="round" stroke-linejoin="round"/>
<path d="M15 28.9651C22.732 28.9651 29 22.7127 29 14.9999C29 7.28712 22.732 1.03467 15 1.03467C7.26801 1.03467 1 7.28712 1 14.9999C1 22.7127 7.26801 28.9651 15 28.9651Z" stroke="white" stroke-width="2"/>
</svg>
