
<svg xmlns="http://www.w3.org/2000/svg" width="30" height="30" viewBox="0 0 30 30" fill="none">
  <path d="M8 23.3793V21.9827C8 18.1264 11.134 15.0001 15 15.0001C18.866 15.0001 22 18.1264 22 21.9827V23.3793" stroke="#2A3884" stroke-width="2" stroke-linecap="round"/>
  <path d="M14.9996 15.0004C17.3192 15.0004 19.1996 13.1247 19.1996 10.8108C19.1996 8.49699 17.3192 6.62125 14.9996 6.62125C12.6799 6.62125 10.7996 8.49699 10.7996 10.8108C10.7996 13.1247 12.6799 15.0004 14.9996 15.0004Z" stroke="#2A3884" stroke-width="2" stroke-linecap="round" stroke-linejoin="round"/>
  <path d="M15 28.9652C22.732 28.9652 29 22.7128 29 15C29 7.28721 22.732 1.03476 15 1.03476C7.26801 1.03476 1 7.28721 1 15C1 22.7128 7.26801 28.9652 15 28.9652Z" stroke="#2A3884" stroke-width="2"/>
</svg>
