<svg xmlns="http://www.w3.org/2000/svg" width="17" height="16" viewBox="0 0 17 16" fill="none">
  <g clip-path="url(#clip0_1040_65536)">
    <path d="M11.0417 14V12.6667C11.0417 11.9594 10.7607 11.2811 10.2606 10.781C9.76051 10.281 9.08223 10 8.37499 10H3.70832C3.00108 10 2.3228 10.281 1.82271 10.781C1.32261 11.2811 1.04166 11.9594 1.04166 12.6667V14" stroke="#004C98" stroke-width="2" stroke-linecap="round" stroke-linejoin="round"/>
    <path d="M6.04167 7.33333C7.51443 7.33333 8.70833 6.13943 8.70833 4.66667C8.70833 3.19391 7.51443 2 6.04167 2C4.56891 2 3.375 3.19391 3.375 4.66667C3.375 6.13943 4.56891 7.33333 6.04167 7.33333Z" stroke="#004C98" stroke-width="2" stroke-linecap="round" stroke-linejoin="round"/>
    <path d="M11.7083 7.33333L13.0417 8.66667L15.7083 6" stroke="#004C98" stroke-width="2" stroke-linecap="round" stroke-linejoin="round"/>
  </g>
  <defs>
    <clipPath id="clip0_1040_65536">
      <rect width="16" height="16" fill="white" transform="translate(0.375)"/>
    </clipPath>
  </defs>
</svg>
