<svg width="30" height="29" viewBox="0 0 30 29" fill="none" xmlns="http://www.w3.org/2000/svg">
<path d="M18 27.1V18.4C18 17.9029 18.4029 17.5 18.9 17.5H27.6C28.0971 17.5 28.5 17.9029 28.5 18.4V27.1C28.5 27.5971 28.0971 28 27.6 28H18.9C18.4029 28 18 27.5971 18 27.1Z" stroke="#6C6C6C" stroke-width="2"/>
<path d="M1.5 27.1V18.4C1.5 17.9029 1.90294 17.5 2.4 17.5H11.1C11.5971 17.5 12 17.9029 12 18.4V27.1C12 27.5971 11.5971 28 11.1 28H2.4C1.90294 28 1.5 27.5971 1.5 27.1Z" stroke="#6C6C6C" stroke-width="2"/>
<path d="M18 10.6V1.9C18 1.40294 18.4029 1 18.9 1H27.6C28.0971 1 28.5 1.40294 28.5 1.9V10.6C28.5 11.0971 28.0971 11.5 27.6 11.5H18.9C18.4029 11.5 18 11.0971 18 10.6Z" stroke="#6C6C6C" stroke-width="2"/>
<path d="M1.5 10.6V1.9C1.5 1.40294 1.90294 1 2.4 1H11.1C11.5971 1 12 1.40294 12 1.9V10.6C12 11.0971 11.5971 11.5 11.1 11.5H2.4C1.90294 11.5 1.5 11.0971 1.5 10.6Z" stroke="#6C6C6C" stroke-width="2"/>
</svg>
