<svg xmlns="http://www.w3.org/2000/svg" width="18" height="18" viewBox="0 0 18 18" fill="none">
  <path d="M14.6857 14.9867L16.5354 16.8365L14.6857 14.9867ZM14.6857 14.9867C15.1261 14.3922 15.3881 13.6551 15.3881 12.857C15.3881 10.8823 13.7871 9.28132 11.8124 9.28132C9.83759 9.28132 8.23665 10.8823 8.23665 12.857C8.23665 14.8318 9.83759 16.4328 11.8124 16.4328C12.528 16.4328 13.1925 16.2223 13.7517 15.8614L15.6312 17.7409C15.6715 17.7812 15.7222 17.7988 15.772 17.7988C15.8222 17.7988 15.8747 17.7789 15.9127 17.7409L16.5354 17.1182L14.6857 14.9867ZM16.5788 17.0536C16.5687 17.0778 16.554 17.0997 16.5355 17.1181L16.5788 17.0536ZM16.5788 17.0536C16.5888 17.0294 16.594 17.0035 16.594 16.9774M16.5788 17.0536L16.594 16.9774M16.594 16.9774C16.594 16.9512 16.5888 16.9253 16.5788 16.9011M16.594 16.9774L16.5788 16.9011M16.5788 16.9011C16.5687 16.8769 16.554 16.855 16.5355 16.8366L16.5788 16.9011ZM12.5756 4.98204V4.01775C12.5756 3.90727 12.4853 3.81704 12.3749 3.81704H4.66057C4.55009 3.81704 4.45986 3.90727 4.45986 4.01775V4.98204C4.45986 5.09252 4.55009 5.18275 4.66057 5.18275H12.3749C12.4853 5.18275 12.5756 5.09252 12.5756 4.98204ZM4.66057 6.7099C4.55009 6.7099 4.45986 6.80013 4.45986 6.91061V7.8749C4.45986 7.98538 4.55009 8.07561 4.66057 8.07561H8.357C8.46749 8.07561 8.55772 7.98538 8.55772 7.8749V6.91061C8.55772 6.80013 8.46749 6.7099 8.357 6.7099H4.66057ZM7.55343 15.7903H2.93272V1.7274H14.1027V8.59811C14.1027 8.70859 14.1929 8.79882 14.3034 8.79882H15.4284C15.5389 8.79882 15.6291 8.70859 15.6291 8.59811V0.883824C15.6291 0.506152 15.324 0.200967 14.9463 0.200967H2.08915C1.71147 0.200967 1.40629 0.506152 1.40629 0.883824V16.6338C1.40629 17.0115 1.71147 17.3167 2.08915 17.3167H7.55343C7.66392 17.3167 7.75415 17.2264 7.75415 17.116V15.991C7.75415 15.8805 7.66392 15.7903 7.55343 15.7903ZM11.8124 15.067C10.5909 15.067 9.60236 14.0785 9.60236 12.857C9.60236 11.6356 10.5909 10.647 11.8124 10.647C13.0338 10.647 14.0224 11.6356 14.0224 12.857C14.0224 14.0785 13.0338 15.067 11.8124 15.067Z" fill="#2A3884" stroke="#2A3884" stroke-width="0.08"/>
</svg>