<svg xmlns="http://www.w3.org/2000/svg" width="25" height="21" viewBox="0 0 25 21" fill="none">
  <path d="M11.215 16.0714C11.215 16.4124 11.3504 16.7394 11.5915 16.9806C11.8327 17.2217 12.1597 17.3571 12.5007 17.3571C12.8417 17.3571 13.1687 17.2217 13.4098 16.9806C13.6509 16.7394 13.7864 16.4124 13.7864 16.0714C13.7864 15.7304 13.6509 15.4034 13.4098 15.1623C13.1687 14.9212 12.8417 14.7857 12.5007 14.7857C12.1597 14.7857 11.8327 14.9212 11.5915 15.1623C11.3504 15.4034 11.215 15.7304 11.215 16.0714ZM11.6435 7.92857V12.8571C11.6435 12.975 11.74 13.0714 11.8578 13.0714H13.1435C13.2614 13.0714 13.3578 12.975 13.3578 12.8571V7.92857C13.3578 7.81071 13.2614 7.71429 13.1435 7.71429H11.8578C11.74 7.71429 11.6435 7.81071 11.6435 7.92857ZM24.3855 19.7143L13.2426 0.428571C13.0766 0.141964 12.79 0 12.5007 0C12.2114 0 11.9221 0.141964 11.7587 0.428571L0.615857 19.7143C0.286393 20.2875 0.698893 21 1.35782 21H23.6435C24.3025 21 24.715 20.2875 24.3855 19.7143ZM3.39889 18.967L12.5007 3.21161L21.6025 18.967H3.39889Z" fill="#EC0000"/>
</svg>
