 <svg
              xmlns="http://www.w3.org/2000/svg"
              width="26"
              height="27"
              viewBox="0 0 26 27"
              fill="none"
            >
              <g clip-path="url(#clip0_615_6219)">
                <path
                  d="M11.6069 19.8643C11.6069 20.2337 11.7536 20.588 12.0149 20.8492C12.2761 21.1104 12.6304 21.2572 12.9998 21.2572C13.3692 21.2572 13.7234 21.1104 13.9847 20.8492C14.2459 20.588 14.3926 20.2337 14.3926 19.8643C14.3926 19.4949 14.2459 19.1406 13.9847 18.8794C13.7234 18.6182 13.3692 18.4715 12.9998 18.4715C12.6304 18.4715 12.2761 18.6182 12.0149 18.8794C11.7536 19.1406 11.6069 19.4949 11.6069 19.8643ZM12.0712 11.0429V16.3822C12.0712 16.5099 12.1757 16.6143 12.3033 16.6143H13.6962C13.8239 16.6143 13.9283 16.5099 13.9283 16.3822V11.0429C13.9283 10.9152 13.8239 10.8108 13.6962 10.8108H12.3033C12.1757 10.8108 12.0712 10.9152 12.0712 11.0429ZM25.875 23.8108L13.8036 2.9179C13.6236 2.60741 13.3132 2.45361 12.9998 2.45361C12.6864 2.45361 12.373 2.60741 12.196 2.9179L0.124536 23.8108C-0.232384 24.4317 0.214491 25.2036 0.92833 25.2036H25.0712C25.785 25.2036 26.2319 24.4317 25.875 23.8108ZM3.13949 23.0012L12.9998 5.93285L22.86 23.0012H3.13949Z"
                  fill="#EC0015"
                />
              </g>
              <defs>
                <clipPath id="clip0_615_6219">
                  <rect
                    width="26"
                    height="26"
                    fill="white"
                    transform="translate(0 0.828613)"
                  />
                </clipPath>
              </defs>
            </svg>
