<svg xmlns="http://www.w3.org/2000/svg" width="20" height="20" viewBox="0 0 29 34" fill="none">
  <path d="M7.56757 5.37844H3.91892C2.30684 5.37844 1 6.68528 1 8.29736V28.7298C1 30.3419 2.30684 31.6487 3.91892 31.6487H12.6757" stroke="black" stroke-width="2" stroke-linecap="round"/>
  <path d="M17.7838 5.37844H21.4324C23.0446 5.37844 24.3514 6.68528 24.3514 8.29736V21.4325" stroke="black" stroke-width="2" stroke-linecap="round"/>
  <path d="M6.83786 8.88108V6.10811C6.83786 5.70509 7.16457 5.37838 7.56759 5.37838C7.9706 5.37838 8.30348 5.05152 8.37251 4.65446C8.58874 3.4106 9.42693 1 12.6757 1C15.9245 1 16.7626 3.4106 16.9789 4.65446C17.0479 5.05152 17.3808 5.37838 17.7838 5.37838C18.1868 5.37838 18.5135 5.70509 18.5135 6.10811V8.88108C18.5135 9.3647 18.1215 9.75676 17.6379 9.75676H7.71354C7.22992 9.75676 6.83786 9.3647 6.83786 8.88108Z" stroke="black" stroke-width="2" stroke-linecap="round"/>
  <path d="M17.7838 29.4593L20.7027 32.3783L28 25.081" stroke="black" stroke-width="2" stroke-linecap="round" stroke-linejoin="round"/>
</svg>