<svg xmlns="http://www.w3.org/2000/svg" width="20" height="20" viewBox="0 0 32 32" fill="none">
  <path d="M29.4286 26H4.85715V3.71429C4.85715 3.55715 4.72858 3.42857 4.57144 3.42857H2.57144C2.41429 3.42857 2.28572 3.55715 2.28572 3.71429V28.2857C2.28572 28.4429 2.41429 28.5714 2.57144 28.5714H29.4286C29.5857 28.5714 29.7143 28.4429 29.7143 28.2857V26.2857C29.7143 26.1286 29.5857 26 29.4286 26ZM8.00001 23.1429H10C10.1571 23.1429 10.2857 23.0143 10.2857 22.8571V17.7143C10.2857 17.5571 10.1571 17.4286 10 17.4286H8.00001C7.84286 17.4286 7.71429 17.5571 7.71429 17.7143V22.8571C7.71429 23.0143 7.84286 23.1429 8.00001 23.1429ZM13.4286 23.1429H15.4286C15.5857 23.1429 15.7143 23.0143 15.7143 22.8571V11.4286C15.7143 11.2714 15.5857 11.1429 15.4286 11.1429H13.4286C13.2714 11.1429 13.1429 11.2714 13.1429 11.4286V22.8571C13.1429 23.0143 13.2714 23.1429 13.4286 23.1429ZM18.8572 23.1429H20.8572C21.0143 23.1429 21.1429 23.0143 21.1429 22.8571V14.2143C21.1429 14.0571 21.0143 13.9286 20.8572 13.9286H18.8572C18.7 13.9286 18.5714 14.0571 18.5714 14.2143V22.8571C18.5714 23.0143 18.7 23.1429 18.8572 23.1429ZM24.2857 23.1429H26.2857C26.4429 23.1429 26.5714 23.0143 26.5714 22.8571V8.57143C26.5714 8.41429 26.4429 8.28572 26.2857 8.28572H24.2857C24.1286 8.28572 24 8.41429 24 8.57143V22.8571C24 23.0143 24.1286 23.1429 24.2857 23.1429Z" fill="black"/>
</svg>