<svg
        width="22"
        height="23"
        viewBox="0 0 22 23"
        fill="none"
        xmlns="http://www.w3.org/2000/svg"
      >
        <path
          d="M20.6261 11.7511H19.2511C19.1431 11.7511 19.0547 11.8395 19.0547 11.9475V19.8047H2.94754V3.69754H10.8047C10.9127 3.69754 11.0011 3.60915 11.0011 3.50112V2.12612C11.0011 2.01808 10.9127 1.92969 10.8047 1.92969H1.9654C1.5308 1.92969 1.17969 2.2808 1.17969 2.7154V20.7868C1.17969 21.2214 1.5308 21.5725 1.9654 21.5725H20.0368C20.4714 21.5725 20.8225 21.2214 20.8225 20.7868V11.9475C20.8225 11.8395 20.7342 11.7511 20.6261 11.7511Z"
          fill="black"
          fill-opacity="0.85"
        />
        <path
          d="M7.16814 12.3134L7.12149 15.2328C7.11904 15.4513 7.29582 15.6306 7.51435 15.6306H7.52417L10.4215 15.5594C10.4706 15.5569 10.5197 15.5373 10.5541 15.5029L20.7659 5.31317C20.842 5.23705 20.842 5.11183 20.7659 5.03571L17.7139 1.98616C17.6746 1.94688 17.6255 1.92969 17.5739 1.92969C17.5224 1.92969 17.4733 1.94933 17.434 1.98616L7.22462 12.1759C7.18915 12.213 7.16898 12.2621 7.16814 12.3134ZM8.72729 12.8929L17.5739 4.06585L18.6838 5.17321L9.8322 14.0051L8.71011 14.0321L8.72729 12.8929Z"
          fill="black"
          fill-opacity="0.85"
        />
      </svg>
