<svg xmlns="http://www.w3.org/2000/svg" width="20" height="20" viewBox="0 0 29 29" fill="none">
  <path d="M17.5 27.1V18.4C17.5 17.9029 17.9029 17.5 18.4 17.5H27.1C27.5971 17.5 28 17.9029 28 18.4V27.1C28 27.5971 27.5971 28 27.1 28H18.4C17.9029 28 17.5 27.5971 17.5 27.1Z" stroke="black" stroke-width="2"/>
  <path d="M1 27.1V18.4C1 17.9029 1.40294 17.5 1.9 17.5H10.6C11.0971 17.5 11.5 17.9029 11.5 18.4V27.1C11.5 27.5971 11.0971 28 10.6 28H1.9C1.40294 28 1 27.5971 1 27.1Z" stroke="black" stroke-width="2"/>
  <path d="M17.5 10.6V1.9C17.5 1.40294 17.9029 1 18.4 1H27.1C27.5971 1 28 1.40294 28 1.9V10.6C28 11.0971 27.5971 11.5 27.1 11.5H18.4C17.9029 11.5 17.5 11.0971 17.5 10.6Z" stroke="black" stroke-width="2"/>
  <path d="M1 10.6V1.9C1 1.40294 1.40294 1 1.9 1H10.6C11.0971 1 11.5 1.40294 11.5 1.9V10.6C11.5 11.0971 11.0971 11.5 10.6 11.5H1.9C1.40294 11.5 1 11.0971 1 10.6Z" stroke="black" stroke-width="2"/>
</svg>