<svg xmlns="http://www.w3.org/2000/svg" width="20" height="20" viewBox="0 0 26 26" fill="none">
  <path d="M6.83784 4.34912H3.59459C2.16164 4.34912 1 5.34867 1 6.58168V22.2096C1 23.4426 2.16164 24.4421 3.59459 24.4421H11.3784" stroke="black" stroke-width="2" stroke-linecap="round"/>
  <path d="M15.9189 4.34912H19.1622C20.5952 4.34912 21.7568 5.34867 21.7568 6.58168V16.6282" stroke="black" stroke-width="2" stroke-linecap="round"/>
  <path d="M6.18945 7.02791V4.90698C6.18945 4.59873 6.47987 4.34884 6.8381 4.34884C7.19634 4.34884 7.49223 4.09884 7.55359 3.79514C7.7458 2.84377 8.49085 1 11.3786 1C14.2664 1 15.0115 2.84377 15.2037 3.79514C15.2651 4.09884 15.561 4.34884 15.9192 4.34884C16.2774 4.34884 16.5678 4.59873 16.5678 4.90698V7.02791C16.5678 7.39781 16.2194 7.69767 15.7895 7.69767H6.96783C6.53795 7.69767 6.18945 7.39781 6.18945 7.02791Z" stroke="black" stroke-width="2" stroke-linecap="round"/>
  <path d="M15.9189 22.7673L18.5135 24.9999L25 19.4185" stroke="black" stroke-width="2" stroke-linecap="round" stroke-linejoin="round"/>
</svg>