<svg xmlns="http://www.w3.org/2000/svg" width="20" height="20" viewBox="0 0 32 32" fill="none">
  <path d="M22.2857 8.85715V7.14286C22.2857 6.98572 22.1571 6.85715 22 6.85715H8.28571C8.12857 6.85715 8 6.98572 8 7.14286V8.85715C8 9.01429 8.12857 9.14286 8.28571 9.14286H22C22.1571 9.14286 22.2857 9.01429 22.2857 8.85715ZM8.28571 12C8.12857 12 8 12.1286 8 12.2857V14C8 14.1571 8.12857 14.2857 8.28571 14.2857H14.8571C15.0143 14.2857 15.1429 14.1571 15.1429 14V12.2857C15.1429 12.1286 15.0143 12 14.8571 12H8.28571ZM21.7143 16.1429C17.4536 16.1429 14 19.5964 14 23.8571C14 28.1179 17.4536 31.5714 21.7143 31.5714C25.975 31.5714 29.4286 28.1179 29.4286 23.8571C29.4286 19.5964 25.975 16.1429 21.7143 16.1429ZM25.5536 27.6964C24.5286 28.7214 23.1643 29.2857 21.7143 29.2857C20.2643 29.2857 18.9 28.7214 17.875 27.6964C16.85 26.6714 16.2857 25.3071 16.2857 23.8571C16.2857 22.4071 16.85 21.0429 17.875 20.0179C18.9 18.9929 20.2643 18.4286 21.7143 18.4286C23.1643 18.4286 24.5286 18.9929 25.5536 20.0179C26.5786 21.0429 27.1429 22.4071 27.1429 23.8571C27.1429 25.3071 26.5786 26.6714 25.5536 27.6964ZM24.8929 21.1429H23.3107C23.2179 21.1429 23.1321 21.1857 23.0786 21.2607L20.8107 24.3964L19.9857 23.2571C19.9593 23.2203 19.9244 23.1904 19.884 23.1699C19.8436 23.1494 19.7989 23.1389 19.7536 23.1393H18.1786C17.9464 23.1393 17.8107 23.4036 17.9464 23.5929L20.5821 27.2393C20.6964 27.3964 20.9286 27.3964 21.0429 27.2393L25.1214 21.5964C25.2607 21.4071 25.125 21.1429 24.8929 21.1429ZM13.4286 28.1429H5.14286V3H25.1429V15.2857C25.1429 15.4429 25.2714 15.5714 25.4286 15.5714H27.4286C27.5857 15.5714 27.7143 15.4429 27.7143 15.2857V1.57143C27.7143 0.939288 27.2036 0.428574 26.5714 0.428574H3.71428C3.08214 0.428574 2.57143 0.939288 2.57143 1.57143V29.5714C2.57143 30.2036 3.08214 30.7143 3.71428 30.7143H13.4286C13.5857 30.7143 13.7143 30.5857 13.7143 30.4286V28.4286C13.7143 28.2714 13.5857 28.1429 13.4286 28.1429Z" fill="black"/>
</svg>