<svg xmlns="http://www.w3.org/2000/svg" width="20" height="20" viewBox="0 0 29 29" fill="none">
  <path d="M14.5 18.55C16.7368 18.55 18.55 16.7368 18.55 14.5C18.55 12.2632 16.7368 10.45 14.5 10.45C12.2632 10.45 10.45 12.2632 10.45 14.5C10.45 16.7368 12.2632 18.55 14.5 18.55Z" stroke="black" stroke-width="2" stroke-linecap="round" stroke-linejoin="round"/>
  <path d="M24.7902 12.3338L23.3083 8.75548L25.3 6.4L22.6 3.7L20.2573 5.70198L16.603 4.19915L15.7627 1H13.1244L12.2713 4.24153L8.70095 5.74655L6.4 3.7L3.7 6.4L5.66205 8.81495L4.20287 12.4025L1 13.15V15.85L4.2415 16.7349L5.74626 20.3046L3.7 22.6L6.4 25.3L8.81807 23.3294L12.336 24.7766L13.15 28H15.85L16.6661 24.7778L20.2444 23.2959C20.8408 23.7223 22.6 25.3 22.6 25.3L25.3 22.6L23.2965 20.2367L24.7788 16.6573L27.9999 15.8192L28 13.15L24.7902 12.3338Z" stroke="black" stroke-width="2" stroke-linecap="round" stroke-linejoin="round"/>
</svg>